{"title":"Mega Shark Vs Crocosaurus DvDRip Ac3 XviD Feel-Free","uid":6058935,"size":860669752,"categoryP":"video","categoryS":"movies","magnet":"?xt=urn:btih:89265d62f8e17d8898cc2dde2f288e045858c7f7&amp;dn=Mega+Shark+Vs+Crocosaurus+DvDRip+Ac3+XviD+Feel-Free&amp;tr=udp%3A%2F%2Ftracker.openbittorrent.com%3A80&amp;tr=udp%3A%2F%2Fopen.demonii.com%3A1337&amp;tr=udp%3A%2F%2Ftracker.coppersurfer.tk%3A6969&amp;tr=udp%3A%2F%2Fexodus.desync.com%3A6969","seeders":0,"leechers":1,"uploader":"neon","files":-1,"time":1293030266,"description":"Genre:Action | Adventure\nLanguage:English\n &lt;a href=&quot; http://www.imdb.com/title/tt1705773/&quot; rel=&quot;nofollow&quot; target=&quot;_NEW&quot;&gt; http://www.imdb.com/title/tt1705773/&lt;/a&gt;\nSource:DVD\n\n\nFormat : AVI\nFormat/Info : Audio Video Interleave\nFile size : 819 MiB\nDuration : 1h 28mn\nOverall bit rate : 1 293 Kbps\n\nVideo\nCodec ID/Hint : XviD\nDuration : 1h 28mn\nBit rate : 899 Kbps\nWidth : 720 pixels\nHeight : 384 pixels\nDisplay aspect ratio : 1.875\nFrame rate : 23.976 fps\nColor space : YUV\nChroma subsampling : 4:2:0\nBit depth : 8 bits\nScan type : Progressive\nBits/(Pixel*Frame) : 0.136\nStream size : 569 MiB (69%)\nWriting library : XviD 1.2.1 (UTC 2008-12-04)\n\nAudio\nID : 1\nFormat : AC-3\nFormat/Info : Audio Coding 3\nMode extension : CM (complete main)\nCodec ID : 2000\nDuration : 1h 28mn\nBit rate mode : Constant\nBit rate : 384 Kbps\nChannel(s) : 6 channels\nChannel positions : Front: L C R, Side: L R, LFE\nSampling rate : 48.0 KHz\nBit depth : 16 bits\nStream size : 243 MiB (30%)\nAlignment : Aligned on interleaves\nInterleave, duration : 32 ms (0.77 video frame)\n\n","torrent":{"xt":"urn:btih:89265d62f8e17d8898cc2dde2f288e045858c7f7","amp;dn":"Mega+Shark+Vs+Crocosaurus+DvDRip+Ac3+XviD+Feel-Free","amp;tr":["udp%3A%2F%2Ftracker.openbittorrent.com%3A80","udp%3A%2F%2Fopen.demonii.com%3A1337","udp%3A%2F%2Ftracker.coppersurfer.tk%3A6969","udp%3A%2F%2Fexodus.desync.com%3A6969"],"infoHash":"89265d62f8e17d8898cc2dde2f288e045858c7f7","infoHashBuffer":{"type":"Buffer","data":[137,38,93,98,248,225,125,136,152,204,45,222,47,40,142,4,88,88,199,247]},"announce":[],"urlList":[]}}